<?xml version="1.0" standalone="no"?>
<!DOCTYPE svg PUBLIC "-//W3C//DTD SVG 20010904//EN"
 "http://www.w3.org/TR/2001/REC-SVG-20010904/DTD/svg10.dtd">
<svg version="1.0" xmlns="http://www.w3.org/2000/svg"
 width="260.000000pt" height="260.000000pt" viewBox="0 0 260.000000 260.000000"
 preserveAspectRatio="xMidYMid meet">
<metadata>
Created by potrace 1.11, written by Peter Selinger 2001-2013
</metadata>
<g transform="translate(0.000000,260.000000) scale(0.100000,-0.100000)"
fill="#000000" stroke="none">
<path d="M115 2581 c-46 -21 -73 -48 -97 -99 -16 -35 -17 -113 -15 -1194 l2
-1156 30 -44 c18 -26 48 -52 75 -65 l45 -22 1141 -1 c1099 0 1144 1 1186 19
53 23 94 68 108 121 7 26 9 412 8 1182 l-3 1144 -27 41 c-15 22 -44 51 -65 64
l-38 24 -1155 2 c-1104 3 -1157 2 -1195 -16z"/>
</g>
</svg>
