<svg width="215" height="215" viewBox="0 0 215 215" fill="none" xmlns="http://www.w3.org/2000/svg">
<path d="M176.5 120.52C177.551 118.588 178.114 116.387 178.386 113.817C178.012 113.691 177.643 113.53 177.284 113.333C176.313 112.801 175.524 112.067 174.935 111.215L128.136 136.004C128.228 136.346 128.269 136.699 128.259 137.054L138.639 141.07C140.324 138.433 143.791 137.519 146.576 139.048C146.947 139.252 147.29 139.488 147.599 139.755L168.39 127.752L168.436 127.722C172.532 125.518 175.032 123.222 176.5 120.52V120.52ZM152.703 74.9774L172.182 46.8643C171.661 46.5646 171.175 46.2101 170.731 45.8091L140.651 63.1769C140.774 64.0119 140.702 64.8806 140.416 65.712L150.079 75.4512C150.852 74.9699 151.793 74.7911 152.703 74.9774ZM155.022 80.4335L176.35 101.93C177.02 101.405 177.777 101.014 178.58 100.768L178.588 80.4169L178.589 50.7539V50.6999C178.622 49.6284 178.607 48.6295 178.547 47.6932C177.85 47.8787 177.12 47.9786 176.366 47.9786C175.565 47.9786 174.789 47.866 174.056 47.6565L154.48 75.9099C155.623 77.0085 155.938 78.7776 155.14 80.2343C155.103 80.302 155.063 80.3681 155.022 80.4335V80.4335ZM145.639 107.023L173.931 105.651C174.071 105.097 174.283 104.552 174.569 104.029C174.762 103.68 174.979 103.352 175.217 103.053L153.892 81.5559C153.009 82.108 151.906 82.2618 150.884 81.9315L142.987 104.019C144.235 104.715 145.141 105.791 145.639 107.023V107.023ZM138.015 114.981L127.212 134.403C127.275 134.465 127.333 134.529 127.389 134.596L174.189 109.804C174.168 109.747 174.147 109.689 174.126 109.631L145.834 111.005C145.713 111.41 145.548 111.808 145.337 112.195C143.89 114.832 140.761 115.962 138.015 114.981V114.981ZM121.892 134.641L109.241 113.49C109.097 113.545 108.949 113.596 108.801 113.641V134.644C108.955 134.709 109.109 134.784 109.258 134.867C110.485 135.539 111.326 136.641 111.697 137.883L121.076 136.622C121.118 136.142 121.259 135.662 121.505 135.212C121.619 135.007 121.749 134.815 121.892 134.641ZM134.221 110.904L113.214 109.511C113.102 109.805 112.967 110.096 112.812 110.379C112.41 111.115 111.891 111.746 111.293 112.264L123.944 133.416C124.442 133.314 124.963 133.317 125.473 133.436L136.275 114.014C135.255 113.203 134.554 112.105 134.221 110.904V110.904ZM148.694 82.1251L113.083 104.342C113.251 104.725 113.381 105.123 113.477 105.529L134.485 106.922C134.563 106.741 134.648 106.563 134.746 106.387C136.025 104.051 138.624 102.899 141.106 103.345L148.694 82.1251ZM108.801 84.2706V100.53C109.242 100.665 109.678 100.845 110.098 101.076C110.855 101.491 111.502 102.028 112.029 102.649L148.631 79.8108C148.259 78.8535 148.296 77.7451 148.829 76.7736C148.867 76.7051 148.907 76.6382 148.947 76.5738L139.637 67.1889C138.053 69.3185 135.101 70.0078 132.708 68.696C132.44 68.5488 132.188 68.3813 131.955 68.1974L111.69 79.8973C111.734 80.6909 111.565 81.5057 111.154 82.2528C110.619 83.2268 109.769 83.9198 108.801 84.2706ZM109.085 158.278L122.077 139.449C121.726 139.087 121.461 138.66 121.29 138.2L111.91 139.462C111.893 140.256 111.689 141.055 111.282 141.801C110.707 142.847 109.821 143.613 108.801 144.046V158.147C108.897 158.186 108.991 158.231 109.085 158.278V158.278ZM137.774 143.301L127.395 139.284C126.384 140.468 124.693 140.877 123.236 140.247L110.244 159.076C110.575 159.38 110.86 159.724 111.096 160.095C112.854 159.543 114.679 158.699 116.651 157.619L137.792 145.411C137.663 144.722 137.653 144.007 137.774 143.301" fill="url(#paint0_linear)"/>
<path d="M138.658 59.7226L168.486 42.5014C168.335 42.0944 168.214 41.6717 168.127 41.2361L120.244 40.6933C120.08 41.3136 119.837 41.9233 119.515 42.5112C119.263 42.9685 118.975 43.3912 118.656 43.7803L133.594 58.8366C134.972 58.3763 136.529 58.4703 137.904 59.2234C138.173 59.3705 138.425 59.5387 138.658 59.7226V59.7226ZM96.8028 6.16907L122.593 15.9713C123.263 15.2505 124.219 14.7991 125.281 14.7991C126.551 14.7991 127.671 15.4435 128.328 16.4264L133.331 14.1571L133.327 14.0317C133.327 13.6563 133.426 13.3049 133.6 13.0014L117.002 3.41765L116.955 3.3869C113.001 0.942679 109.76 -0.0724997 106.682 0.00400845C103.583 0.0835923 100.492 1.27601 96.9079 3.23965L96.7428 3.33423C96.9575 4.25348 96.9831 5.21906 96.8028 6.16907V6.16907ZM128.948 18.3885L169.667 33.8646L168.732 33.2849L142.691 18.251L137.195 15.0769C136.835 15.6926 136.167 16.1065 135.402 16.1065C134.804 16.1065 134.266 15.8541 133.888 15.4502L128.874 17.7247C128.918 17.9394 128.943 18.1609 128.948 18.3885V18.3885ZM94.7941 9.85511L108.976 31.2672C111.089 30.282 113.597 30.2197 115.836 31.2672L122.341 20.6614C121.884 20.0501 121.613 19.2902 121.613 18.4673C121.613 18.3644 121.616 18.2631 121.625 18.1632L95.9512 8.4051C95.6253 8.95104 95.2342 9.43547 94.7941 9.85511V9.85511ZM117.055 31.9692C118.721 33.1324 119.835 34.8392 120.287 36.712L168.287 37.2564C168.405 36.8457 168.552 36.4484 168.729 36.0655L128.215 20.6674C127.546 21.5587 126.482 22.1347 125.281 22.1347C124.594 22.1347 123.952 21.9478 123.404 21.6197L117.055 31.9692ZM87.0951 11.0633L74.8832 28.0248C75.0641 28.3778 75.1723 28.7757 75.1842 29.1976L104.676 36.1647C104.832 35.672 105.04 35.187 105.297 34.7154C105.748 33.8931 106.321 33.1805 106.98 32.5865L92.7974 11.1767C91.0252 11.9435 88.9484 11.9577 87.0951 11.0633ZM72.0349 31.9813L59.8734 48.8737C59.9912 49.0277 60.0987 49.1889 60.1932 49.3566L104.323 39.2388C104.279 38.6764 104.294 38.1064 104.369 37.5403L74.8592 30.5688C74.3972 31.4264 73.4908 32.0113 72.448 32.0113C72.3067 32.0113 72.17 32.0007 72.0349 31.9813V31.9813ZM41.2967 40.2946L54.4 47.8593C55.4422 47.2255 56.739 47.0632 57.9337 47.4769L70.0676 30.6244C69.8415 30.2257 69.7116 29.7661 69.7116 29.2751C69.7116 28.7178 69.879 28.1982 70.1652 27.7649L66.6803 23.8438C66.3116 24.0301 65.8933 24.135 65.451 24.135C64.4396 24.135 63.5542 23.5854 63.0827 22.7677L45.2164 33.0815L45.1706 33.1122C43.2002 34.1709 41.6 35.2522 40.3055 36.3892C41.13 37.5049 41.4911 38.9122 41.2967 40.2946ZM72.9728 26.589L84.7177 10.2765L70.9055 18.251L67.82 20.0315C68.0528 20.4346 68.1874 20.9017 68.1874 21.3988C68.1874 21.9567 68.0205 22.4757 67.7329 22.909L71.2171 26.8301C71.5881 26.6446 72.0049 26.5394 72.448 26.5394C72.6281 26.5394 72.8023 26.556 72.9728 26.589V26.589ZM90.9428 68.958L106.531 44.203C105.8 43.4341 105.236 42.5368 104.858 41.5712L60.9464 51.6393L90.9428 68.958ZM106.234 75.8611L110.162 46.4039C110.076 46.3799 109.99 46.3535 109.903 46.3251L94.3968 70.9517L104.462 76.7638C104.98 76.3266 105.588 76.0218 106.234 75.8611V75.8611ZM132.111 59.6033L117.526 44.9029C116.109 46.0556 114.34 46.6915 112.531 46.7209L108.635 75.9401C108.899 76.0256 109.157 76.1359 109.41 76.2742C109.508 76.3282 109.603 76.3853 109.694 76.4454L129.961 64.7439C129.795 63.6207 129.982 62.4366 130.569 61.3635C130.962 60.6471 131.492 60.0562 132.111 59.6033Z" fill="url(#paint1_linear)"/>
<path d="M104.805 158.147V144.046C104.651 143.981 104.497 143.907 104.347 143.825C103.122 143.151 102.281 142.051 101.908 140.808L74.2772 144.525L96.6039 157.416L96.6505 157.448C98.759 158.751 100.666 159.649 102.453 160.191C103.021 159.247 103.855 158.552 104.805 158.147ZM37.73 73.3741L53.1611 53.8056C52.6505 53.078 52.3869 52.2002 52.4072 51.3133L39.3039 43.7472C38.2376 44.5792 36.8852 44.9764 35.5381 44.8526C35.2167 46.5075 35.065 48.3293 35.026 50.3485V72.2973C35.8527 72.482 36.6667 72.7848 37.4462 73.2119C37.5423 73.2653 37.6361 73.3186 37.73 73.3741ZM72.388 77.1294L58.2943 55.2075C57.2911 55.6617 56.1181 55.716 55.0421 55.2894L39.6118 74.8557C40.847 76.1209 41.6722 77.7045 42.0252 79.3941L72.1184 77.5312C72.2003 77.3893 72.2903 77.2563 72.388 77.1294ZM87.3076 71.4632L62.3146 57.0322L74.4027 75.8349C75.2384 75.6373 76.1486 75.7357 76.961 76.1817C77.0075 76.2065 77.0519 76.2328 77.0976 76.2607L87.3076 71.4632ZM78.5717 80.6774L102.55 101.71C103.227 101.175 103.993 100.778 104.805 100.53V83.7673C103.674 82.994 103.002 81.7647 102.902 80.4671L91.509 73.8886L78.7925 79.8627C78.752 80.1369 78.6791 80.4108 78.5717 80.6774V80.6774ZM63.7496 100.032L72.9226 82.099C72.7117 81.9225 72.5246 81.7249 72.3624 81.5109L41.9734 83.3934C41.7879 84.1781 41.4943 84.9501 41.0873 85.6935C41.0445 85.7708 41.0002 85.8496 40.9551 85.9263L58.6134 100.554C60.1309 99.6401 62.0157 99.4163 63.7496 100.032V100.032ZM74.3403 82.825L65.1651 100.758C66.29 101.534 67.0799 102.64 67.4778 103.869L99.6556 104.618H99.7404L100.392 104.661C100.504 104.367 100.638 104.076 100.794 103.79C100.848 103.69 100.907 103.593 100.964 103.497L76.9948 82.4744C76.1988 82.9204 75.2466 83.0578 74.3403 82.825V82.825ZM38.0927 88.9472L50.7747 110.385C51.0548 110.289 51.3574 110.237 51.6698 110.237C52.3929 110.237 53.0507 110.517 53.5425 110.973L56.6461 108.989C55.6452 107.425 55.3943 105.439 56.0671 103.627L38.2309 88.8532C38.1851 88.8847 38.1392 88.917 38.0927 88.9472V88.9472ZM39.7417 117.635L48.9628 113.486L48.9177 112.989C48.9177 112.363 49.1257 111.787 49.4772 111.326L36.6893 89.7048C36.1494 89.9376 35.5899 90.12 35.0185 90.2477L35.017 110.081V110.135C34.9629 111.91 35.038 113.492 35.2408 114.913C36.0487 114.964 36.859 115.189 37.6151 115.604C38.5222 116.101 39.2401 116.809 39.7417 117.635ZM66.4424 140.006L52.0723 115.712L51.6698 115.741C50.8243 115.741 50.0666 115.359 49.5613 114.759L40.3184 118.92C40.7561 120.339 40.6405 121.927 39.8701 123.333C39.8018 123.458 39.7282 123.578 39.6523 123.697C41.07 125.058 42.8181 126.305 44.8891 127.562L66.4424 140.006ZM68.1237 139.714L62.1922 111.748C61.0621 111.836 59.896 111.607 58.8274 111.022C58.3491 110.761 57.9202 110.441 57.544 110.081L54.2942 112.158C54.3768 112.42 54.4226 112.7 54.4226 112.989C54.4226 113.796 54.0742 114.524 53.5208 115.028L68.1237 139.714ZM72.0456 140.742L101.321 111.202C100.747 110.436 100.343 109.561 100.129 108.641L99.4911 108.598L67.3863 107.849C67.2863 108.114 67.1662 108.375 67.0266 108.63C66.2861 109.982 65.1028 110.939 63.7556 111.418L69.8492 140.155C70.546 140.144 71.2563 140.307 71.9112 140.666C71.9562 140.692 72.0012 140.716 72.0456 140.742V140.742ZM73.8485 142.975L101.695 139.228C101.713 138.435 101.916 137.633 102.324 136.89C102.898 135.843 103.784 135.077 104.805 134.644V113.642C104.363 113.507 103.928 113.324 103.509 113.094C103.237 112.946 102.98 112.782 102.737 112.604L73.4618 142.144C73.6209 142.408 73.7501 142.686 73.8485 142.975Z" fill="url(#paint2_linear)"/>
<path d="M0 214.635H3.72983V208.466L7.03516 205.063L14.2827 214.635H18.8005L9.58246 202.511L18.4066 193.364H13.8276L3.72983 204.06V193.364H0V214.635ZM33.8078 214.969C39.3568 214.969 42.9349 211.779 42.9349 205.428V193.364H39.2048V205.61C39.2048 209.531 37.1735 211.535 33.8683 211.535C30.5321 211.535 28.5008 209.409 28.5008 205.458V193.364H24.7707V205.61C24.7707 211.779 28.2883 214.969 33.8078 214.969V214.969ZM51.6349 214.635H61.4598C66.19 214.635 69.3138 212.599 69.3138 208.801V208.74C69.3138 205.853 67.5848 204.425 65.0984 203.574C66.6747 202.754 68.1307 201.387 68.1307 198.834V198.773C68.1307 197.345 67.6453 196.19 66.7056 195.248C65.493 194.033 63.5826 193.364 61.1566 193.364H51.6349V214.635ZM55.3038 202.328V196.677H60.6713C63.067 196.677 64.4013 197.71 64.4013 199.381V199.442C64.4013 201.387 62.7941 202.328 60.3984 202.328H55.3038ZM55.3038 211.323V205.489H61.2171C64.1587 205.489 65.5837 206.553 65.5837 208.345V208.406C65.5837 210.32 64.037 211.323 61.49 211.323H55.3038ZM77.1029 214.635H92.9931V211.292H80.833V205.58H91.4773V202.237H80.833V196.707H92.8418V193.364H77.1029V214.635ZM108.424 214.939C112.883 214.939 116.006 212.569 116.006 208.588V208.528C116.006 205.003 113.671 203.392 109.183 202.298C105.12 201.326 104.149 200.597 104.149 198.956V198.895C104.149 197.497 105.422 196.373 107.606 196.373C109.546 196.373 111.457 197.133 113.368 198.56L115.369 195.735C113.217 194.002 110.76 193.061 107.667 193.061C103.452 193.061 100.419 195.583 100.419 199.229V199.29C100.419 203.21 102.966 204.547 107.485 205.641C111.427 206.553 112.276 207.373 112.276 208.892V208.953C112.276 210.563 110.821 211.627 108.515 211.627C105.878 211.627 103.845 210.624 101.815 208.861L99.5696 211.535C102.118 213.815 105.18 214.939 108.424 214.939V214.939ZM128.739 214.635H132.499V196.829H139.231V193.364H122.007V196.829H128.739V214.635ZM142.2 214.635H146.02L153.207 197.679L160.394 214.635H164.336L154.996 193.213H151.539L142.2 214.635ZM180.101 215C184.074 215 186.5 213.541 188.713 211.232L186.318 208.801C184.498 210.502 182.829 211.566 180.222 211.566C176.159 211.566 173.218 208.163 173.218 204V203.939C173.218 199.776 176.159 196.433 180.222 196.433C182.649 196.433 184.468 197.497 186.166 199.077L188.561 196.312C186.53 194.367 184.165 193 180.252 193C173.825 193 169.306 197.953 169.306 204V204.06C169.306 210.168 173.915 215 180.101 215V215ZM196.2 214.635H199.93V208.466L203.235 205.063L210.482 214.635H215L205.782 202.511L214.606 193.364H210.028L199.93 204.06V193.364H196.2V214.635" fill="#636363"/>
<defs>
<linearGradient id="paint0_linear" x1="163.869" y1="156.209" x2="144.255" y2="39.3882" gradientUnits="userSpaceOnUse">
<stop stop-color="#3F51B5"/>
<stop offset="1" stop-color="#9C27B0"/>
</linearGradient>
<linearGradient id="paint1_linear" x1="141.093" y1="56.9188" x2="65.1754" y2="16.9258" gradientUnits="userSpaceOnUse">
<stop stop-color="#FF5722"/>
<stop offset="1" stop-color="#FFC107"/>
</linearGradient>
<linearGradient id="paint2_linear" x1="82.4576" y1="131.475" x2="50.6764" y2="78.0125" gradientUnits="userSpaceOnUse">
<stop stop-color="#2196F3"/>
<stop offset="1" stop-color="#00BCD4"/>
</linearGradient>
</defs>
</svg>
