<svg width="335" height="81" viewBox="0 0 335 81" fill="none" xmlns="http://www.w3.org/2000/svg">
<path d="M7.01513 58.98C7.01513 73.72 13.3951 80.32 25.9351 80.32C36.9351 80.32 44.0851 73.06 46.3951 67.56H46.6151C46.6151 67.56 46.5051 68.99 46.5051 70.75V72.84C46.5051 76.8 48.8151 79 53.5451 79H63.7751V69.87H59.2651C57.7251 69.87 56.8451 69.1 56.8451 67.45V23.34H46.1751V49.41C46.1751 60.41 39.4651 70.42 28.0251 70.42C19.2251 70.42 17.6851 64.26 17.6851 56.56V30.16C17.6851 25.43 15.5951 23.34 10.5351 23.34H0.085132V32.47H4.59513C6.13513 32.47 7.01513 33.24 7.01513 34.89V58.98ZM75.5554 79H86.2254V52.93C86.2254 50.18 86.4454 47.65 87.2154 45.45C89.4154 37.42 96.2354 31.81 104.815 31.81C113.725 31.81 115.265 37.97 115.265 45.78V71.96C115.265 76.91 117.355 79 122.305 79H132.865V69.87H128.355C126.815 69.87 125.935 69.1 125.935 67.45V43.36C125.935 29.17 119.995 22.02 106.795 22.02C94.6954 22.02 88.0954 29.94 85.8954 34.78H85.6754C85.6754 34.78 85.8954 33.35 85.8954 31.59V29.5C85.8954 25.43 83.5854 23.34 78.8554 23.34H68.6254V32.47H73.1354C74.6754 32.47 75.5554 33.24 75.5554 34.89V79Z" fill="#F44247"/>
<path d="M144.413 79H155.083V31.92H168.283V23.34H155.083V21.69C155.083 11.35 162.563 10.03 166.743 10.03C168.393 10.03 169.493 10.25 169.493 10.25V1.12C169.493 1.12 167.843 0.789997 165.423 0.789997C158.383 0.789997 144.413 3.09999 144.413 21.47V23.34H137.483V31.92H144.413V79ZM172.324 51.06C172.324 68 185.634 80.32 202.244 80.32C218.854 80.32 232.274 68 232.274 51.06C232.274 34.23 218.854 22.02 202.244 22.02C185.634 22.02 172.324 34.23 172.324 51.06ZM183.214 51.06C183.214 39.51 191.794 31.26 202.244 31.26C212.804 31.26 221.384 39.51 221.384 51.06C221.384 62.72 212.804 71.08 202.244 71.08C191.794 71.08 183.214 62.72 183.214 51.06ZM245.604 79H256.274V56.23C256.274 52.82 256.604 49.41 257.594 46.22C260.124 37.97 266.394 33.13 273.214 33.13C274.974 33.13 276.404 33.46 276.404 33.46V22.9C276.404 22.9 274.974 22.68 273.544 22.68C264.964 22.68 258.584 29.06 255.944 37.2H255.724C255.724 37.2 255.944 35.55 255.944 33.35V29.83C255.944 25.32 253.634 23.34 248.794 23.34H238.674V32.47H243.184C244.724 32.47 245.604 33.24 245.604 34.89V79ZM286.629 79H297.299V52.82H301.479C303.239 52.82 305.769 53.04 306.979 55.13L317.099 73.83C319.519 78.12 321.169 79 326.339 79H334.039V69.87H330.629C327.879 69.87 326.779 69.43 325.899 67.67L317.649 52.6C315.779 49.08 313.909 48.42 313.909 48.42V48.2C313.909 48.2 315.559 47.43 318.089 44.02L333.159 23.34H320.949L308.079 41.38C306.649 43.25 304.229 43.8 302.249 43.8H297.299V7.72C297.299 2.77 295.209 1.34 290.259 1.34H279.699V10.47H284.209C285.749 10.47 286.629 11.24 286.629 12.89V79Z" fill="#004E86"/>
</svg>
